<svg width="91" height="93" viewBox="0 0 91 93" fill="none" xmlns="http://www.w3.org/2000/svg">
<g id="burner-oven 1" filter="url(#filter0_d_221_57)">
<path id="Vector" d="M71.6745 5H19.3264C17.3862 5 15.8073 6.57795 15.8073 8.51816V60.8672C15.8073 62.8074 17.3862 64.3834 19.3254 64.3834H21.0294V67.0461C21.0294 67.5728 21.4566 68 21.9842 68H30.2953C30.8229 68 31.2501 67.5728 31.2501 67.0461V64.3834H59.7478V67.0461C59.7478 67.5728 60.175 68 60.7026 68H69.0137C69.5403 68 69.9676 67.5728 69.9676 67.0461V64.3834H71.6725C73.6127 64.3834 75.1907 62.8064 75.1907 60.8672V8.51816C75.1926 6.57795 73.6147 5 71.6745 5ZM19.3264 6.90772H71.6745C72.5604 6.90772 73.2839 7.63025 73.2839 8.51816V18.0558H17.7169V8.51816C17.7169 7.63123 18.4385 6.90772 19.3264 6.90772ZM29.3414 66.0913H22.94V64.3844H29.3424V66.0913H29.3414ZM68.0598 66.0913H61.6575V64.3844H68.0598V66.0913ZM71.6745 62.4747H19.3264C18.4395 62.4747 17.7169 61.7541 17.7169 60.8672V19.9655H73.2839V60.8672C73.2839 61.7532 72.5604 62.4747 71.6745 62.4747Z" fill="white"/>
<path id="Vector_2" d="M60.7036 16.3223C62.82 16.3223 64.5427 14.5996 64.5427 12.4832C64.5427 10.3668 62.82 8.64417 60.7036 8.64417C58.5862 8.64417 56.8636 10.3668 56.8636 12.4832C56.8636 14.5996 58.5862 16.3223 60.7036 16.3223ZM60.7036 10.5529C61.7668 10.5529 62.634 11.4191 62.634 12.4832C62.634 13.5473 61.7668 14.4136 60.7036 14.4136C59.6385 14.4136 58.7733 13.5473 58.7733 12.4832C58.7733 11.4191 59.6395 10.5529 60.7036 10.5529ZM45.5 16.3223C47.6164 16.3223 49.338 14.5996 49.338 12.4832C49.338 10.3668 47.6164 8.64417 45.5 8.64417C43.3836 8.64417 41.6609 10.3668 41.6609 12.4832C41.6609 14.5996 43.3836 16.3223 45.5 16.3223ZM45.5 10.5529C46.5631 10.5529 47.4293 11.4191 47.4293 12.4832C47.4293 13.5473 46.5641 14.4136 45.5 14.4136C44.4359 14.4136 43.5696 13.5473 43.5696 12.4832C43.5696 11.4191 44.4359 10.5529 45.5 10.5529ZM30.2963 16.3223C32.4137 16.3223 34.1344 14.5996 34.1344 12.4832C34.1344 10.3668 32.4137 8.64417 30.2963 8.64417C28.1799 8.64417 26.4572 10.3668 26.4572 12.4832C26.4572 14.5996 28.1799 16.3223 30.2963 16.3223ZM30.2963 10.5529C31.3604 10.5529 32.2266 11.4191 32.2266 12.4832C32.2266 13.5473 31.3604 14.4136 30.2963 14.4136C29.2322 14.4136 28.3659 13.5473 28.3659 12.4832C28.3659 11.4191 29.2322 10.5529 30.2963 10.5529ZM66.353 32.026H24.6499C24.1223 32.026 23.6951 32.4542 23.6951 32.9809V56.218C23.6951 56.7456 24.1223 57.1729 24.6499 57.1729H66.353C66.8816 57.1729 67.3088 56.7456 67.3088 56.218V32.9809C67.3078 32.4542 66.8816 32.026 66.353 32.026ZM65.3991 55.2642H25.6048V33.9357H65.3991V55.2642Z" fill="white"/>
</g>
<defs>
<filter id="filter0_d_221_57" x="-1" y="0" width="93" height="93" filterUnits="userSpaceOnUse" color-interpolation-filters="sRGB">
<feFlood flood-opacity="0" result="BackgroundImageFix"/>
<feColorMatrix in="SourceAlpha" type="matrix" values="0 0 0 0 0 0 0 0 0 0 0 0 0 0 0 0 0 0 127 0" result="hardAlpha"/>
<feOffset dy="10"/>
<feGaussianBlur stdDeviation="7.5"/>
<feComposite in2="hardAlpha" operator="out"/>
<feColorMatrix type="matrix" values="0 0 0 0 0 0 0 0 0 0 0 0 0 0 0 0 0 0 0.25 0"/>
<feBlend mode="normal" in2="BackgroundImageFix" result="effect1_dropShadow_221_57"/>
<feBlend mode="normal" in="SourceGraphic" in2="effect1_dropShadow_221_57" result="shape"/>
</filter>
</defs>
</svg>
