<svg width="84" height="96" viewBox="0 0 84 96" fill="none" xmlns="http://www.w3.org/2000/svg">
<g id="brainstorm 1" clip-path="url(#clip0_221_68)" filter="url(#filter0_d_221_68)">
<path id="Vector" d="M61.4491 16.6738C61.5074 13.701 60.4086 10.8219 58.3845 8.64388C56.3604 6.46588 53.5694 5.15936 50.6004 5C48.6238 4.99847 46.6918 5.58739 45.0522 6.69125C42.976 5.58522 40.6604 5.00456 38.3079 5C34.9739 5.1084 31.7584 6.26194 29.1158 8.29754C26.4732 10.3332 24.5372 13.1479 23.5816 16.3438C21.0865 17.0909 18.9094 18.6438 17.3906 20.7597C15.8717 22.8756 15.0969 25.4351 15.1872 28.0381C15.0449 31.0679 16.105 34.0312 18.1368 36.2831C20.1686 38.5351 23.0076 39.8934 26.036 40.0625H32.2854L24.9429 53.4069C24.8777 53.5199 24.8422 53.6477 24.8397 53.7781C24.8228 53.8243 24.8158 53.8735 24.8191 53.9225L23.9735 62.3788V62.4613L23.2722 69.4531C23.2522 69.6529 23.2926 69.854 23.3882 70.0305C23.4838 70.207 23.6303 70.3508 23.8085 70.4431C23.9864 70.5366 24.187 70.5785 24.3875 70.5639C24.5879 70.5493 24.7803 70.4789 24.9429 70.3606L30.5116 66.0088L37.1941 60.77C37.367 60.6899 37.5059 60.551 37.586 60.3781L48.7854 40.0625H57.9635C60.9918 39.8934 63.8309 38.5351 65.8627 36.2831C67.8944 34.0312 68.9546 31.0679 68.8122 28.0381C68.8748 25.6222 68.205 23.2438 66.8909 21.2155C65.5767 19.1872 63.6797 17.6039 61.4491 16.6738ZM34.6572 40.0625H39.3597L30.8622 55.49L27.2529 53.51L34.6572 40.0625ZM25.5616 67.2463L25.9122 63.6493C26.8477 63.8816 27.7056 64.3561 28.3996 65.0249L25.5616 67.2463ZM30.0372 63.74L30.0166 63.7565C28.9642 62.662 27.6053 61.9113 26.1185 61.6033V61.5744L26.7166 55.5519L30.7179 57.7794C30.7385 57.7794 30.7385 57.8 30.7591 57.8C30.7797 57.8 30.7797 57.8206 30.8004 57.8206L34.8016 60.0275L30.0372 63.74ZM36.2866 58.4806H36.266L32.6772 56.48L41.711 40.0625H46.4135L36.2866 58.4806ZM57.9635 38H26.036C23.5549 37.8308 21.2406 36.6898 19.5956 34.8247C17.9506 32.9596 17.1077 30.521 17.2497 28.0381C17.1517 25.8343 17.8101 23.6633 19.1156 21.8851C20.4211 20.1069 22.2953 18.8285 24.4272 18.2619H24.4685C26.6 18.4232 28.5829 19.4148 29.9908 21.0232C31.3987 22.6316 32.1189 24.7284 31.9966 26.8625C31.9966 27.136 32.1053 27.3983 32.2987 27.5917C32.4921 27.7851 32.7544 27.8938 33.0279 27.8938C33.3014 27.8938 33.5637 27.7851 33.7571 27.5917C33.9505 27.3983 34.0591 27.136 34.0591 26.8625C34.1496 24.4114 33.3683 22.0076 31.8541 20.078C30.3399 18.1485 28.1908 16.8181 25.7885 16.3231C26.6933 13.6941 28.3744 11.4015 30.6096 9.74808C32.8449 8.09465 35.5292 7.15822 38.3079 7.0625C40.4754 7.06195 42.6039 7.63858 44.4747 8.73313C44.4954 8.75375 44.516 8.75375 44.5366 8.77438C45.5276 9.46662 46.3664 10.3544 47.0013 11.3831C47.6363 12.4117 48.0539 13.5595 48.2285 14.7556C48.2491 14.8588 48.2491 14.9413 48.2697 15.0444C48.2997 15.2924 48.4187 15.5211 48.6045 15.688C48.7904 15.8549 49.0306 15.9487 49.2804 15.9519H49.4041C49.6759 15.9153 49.9228 15.7742 50.0922 15.5585C50.2617 15.3428 50.3404 15.0696 50.3116 14.7969C50.3147 14.7678 50.3074 14.7386 50.291 14.7144C49.9932 12.1409 48.7777 9.76104 46.8672 8.01125C48.0143 7.39198 49.2968 7.06605 50.6004 7.0625C52.9836 7.21629 55.2175 8.27646 56.8438 10.0254C58.47 11.7743 59.3651 14.0794 59.3454 16.4675C58.1557 16.5973 57.0086 16.9844 55.9835 17.6019C55.3375 17.9548 54.741 18.3917 54.2097 18.9013C53.3399 19.7227 52.6147 20.685 52.0647 21.7475C52.0007 21.8674 51.9617 21.999 51.95 22.1344C51.9382 22.2699 51.954 22.4062 51.9964 22.5354C52.0388 22.6645 52.107 22.7837 52.1967 22.8858C52.2864 22.9879 52.3959 23.0707 52.5185 23.1294C52.6568 23.2084 52.813 23.251 52.9722 23.2531C53.1634 23.2554 53.3513 23.2046 53.5152 23.1062C53.6791 23.0079 53.8125 22.866 53.9004 22.6963C54.3526 21.8056 54.9683 21.008 55.7154 20.345C56.2175 19.8617 56.7959 19.4645 57.4272 19.1694C58.292 18.7323 59.243 18.4928 60.2116 18.4681C60.2322 18.4475 60.2322 18.4475 60.2529 18.4681C62.214 19.1632 63.9019 20.4664 65.0705 22.1878C66.2392 23.9092 66.8275 25.9589 66.7497 28.0381C66.8918 30.521 66.0489 32.9596 64.4039 34.8247C62.7589 36.6898 60.4446 37.8308 57.9635 38ZM56.8291 26.78C56.8892 26.61 56.9037 26.4273 56.8711 26.2499C56.8386 26.0726 56.7601 25.9069 56.6435 25.7694C56.5283 25.6214 56.3696 25.5132 56.1897 25.46C55.9271 25.378 55.6429 25.401 55.3968 25.524C55.1506 25.6471 54.9618 25.8607 54.8697 26.12C54.4774 27.2946 54.3232 28.5357 54.416 29.7706C54.416 29.7761 54.4138 29.7813 54.4099 29.7852C54.4061 29.7891 54.4008 29.7913 54.3954 29.7913C54.3747 29.8325 54.3747 29.8531 54.3541 29.8738L54.416 29.8325C54.4773 31.0452 54.8084 32.229 55.3854 33.2975C55.4717 33.4641 55.6018 33.604 55.7617 33.7021C55.9216 33.8002 56.1053 33.8529 56.2929 33.8544C56.4591 33.855 56.6225 33.8124 56.7672 33.7306C56.8877 33.6697 56.9947 33.5853 57.082 33.4823C57.1693 33.3793 57.235 33.2599 57.2754 33.1311C57.3158 33.0023 57.3299 32.8667 57.3171 32.7323C57.3042 32.598 57.2645 32.4675 57.2004 32.3488C56.7673 31.4932 56.5112 30.559 56.4474 29.6022C56.3836 28.6454 56.5134 27.6855 56.8291 26.78ZM30.0579 31.0288C29.1442 31.3203 28.1804 31.4213 27.2261 31.3255C26.2718 31.2297 25.3473 30.9392 24.5097 30.4719C24.3906 30.4065 24.2598 30.3654 24.1248 30.3508C23.9897 30.3361 23.8531 30.3483 23.7228 30.3867C23.5924 30.425 23.471 30.4887 23.3653 30.5741C23.2597 30.6595 23.172 30.765 23.1072 30.8844C23.0427 31.0047 23.0027 31.1367 22.9895 31.2726C22.9764 31.4085 22.9904 31.5457 23.0307 31.6762C23.071 31.8066 23.1368 31.9278 23.2243 32.0326C23.3118 32.1375 23.4192 32.2239 23.5404 32.2869C24.9006 33.0293 26.4251 33.4193 27.9747 33.4213C28.8994 33.4218 29.8184 33.2756 30.6972 32.9881C30.827 32.9477 30.9473 32.8818 31.051 32.7941C31.1548 32.7065 31.24 32.5989 31.3015 32.4778C31.3631 32.3566 31.3997 32.2244 31.4093 32.0889C31.4188 31.9534 31.4011 31.8173 31.3572 31.6888C31.2723 31.429 31.0877 31.2137 30.8441 31.0899C30.6005 30.9662 30.3177 30.9442 30.0579 31.0288ZM47.7747 29.0488C47.2836 28.5541 46.7369 28.1181 46.1454 27.7494C45.5344 27.3545 44.8848 27.0228 44.2066 26.7594C43.5815 26.5114 42.9315 26.3316 42.2679 26.2231C41.9023 26.1413 41.5288 26.0998 41.1541 26.0994C41.0016 26.0164 40.83 25.9747 40.6564 25.9783C40.4828 25.9819 40.3131 26.0308 40.1641 26.12H40.1435C40.0904 26.0993 40.0315 26.0993 39.9785 26.12C38.8274 26.2052 37.7052 26.5208 36.6785 27.0481C36.4554 27.1824 36.2913 27.3961 36.2192 27.6463C36.1472 27.8965 36.1724 28.1647 36.2899 28.3971C36.4074 28.6294 36.6084 28.8088 36.8527 28.899C37.0969 28.9893 37.3662 28.9839 37.6066 28.8838C37.9473 28.7008 38.3069 28.5555 38.6791 28.4506H38.6997C39.5065 28.2004 40.3528 28.1024 41.1954 28.1619C41.9741 28.2128 42.7399 28.3868 43.4641 28.6775C44.0603 28.9067 44.6278 29.2043 45.1554 29.5644C45.7354 29.9555 46.2683 30.4123 46.7435 30.9256C47.3442 31.5735 47.851 32.3025 48.2491 33.0913C48.3342 33.2648 48.4663 33.411 48.6304 33.5131C48.7945 33.6152 48.984 33.6691 49.1772 33.6688C49.3427 33.6643 49.505 33.622 49.6516 33.545C49.7715 33.4834 49.8779 33.3987 49.9647 33.2956C50.0515 33.1925 50.117 33.0732 50.1572 32.9447C50.1975 32.8161 50.2119 32.6808 50.1994 32.5466C50.187 32.4125 50.148 32.2821 50.0847 32.1631C49.5065 30.9956 48.7242 29.9409 47.7747 29.0488ZM41.1747 13.8275C41.383 13.6849 41.5317 13.471 41.5928 13.2261C41.6539 12.9812 41.6231 12.7225 41.5062 12.4988C41.3892 12.2751 41.1944 12.1021 40.9584 12.0125C40.7225 11.9229 40.4619 11.9229 40.226 12.0125C39.3704 12.4457 38.4363 12.7018 37.4795 12.7656C36.5226 12.8294 35.5627 12.6995 34.6572 12.3838C34.5286 12.3383 34.3923 12.3187 34.2561 12.3263C34.1199 12.3339 33.9865 12.3684 33.8638 12.4279C33.741 12.4873 33.6312 12.5706 33.5409 12.6727C33.4505 12.7749 33.3813 12.894 33.3372 13.0231C33.2574 13.2858 33.2813 13.5691 33.4041 13.8147C33.5269 14.0603 33.7392 14.2494 33.9972 14.3431C34.9823 14.6679 36.0125 14.835 37.0497 14.8381C38.487 14.8465 39.9041 14.4993 41.1747 13.8275Z" fill="white"/>
</g>
<defs>
<filter id="filter0_d_221_68" x="-6" y="0" width="96" height="96" filterUnits="userSpaceOnUse" color-interpolation-filters="sRGB">
<feFlood flood-opacity="0" result="BackgroundImageFix"/>
<feColorMatrix in="SourceAlpha" type="matrix" values="0 0 0 0 0 0 0 0 0 0 0 0 0 0 0 0 0 0 127 0" result="hardAlpha"/>
<feOffset dy="10"/>
<feGaussianBlur stdDeviation="7.5"/>
<feComposite in2="hardAlpha" operator="out"/>
<feColorMatrix type="matrix" values="0 0 0 0 0 0 0 0 0 0 0 0 0 0 0 0 0 0 0.25 0"/>
<feBlend mode="normal" in2="BackgroundImageFix" result="effect1_dropShadow_221_68"/>
<feBlend mode="normal" in="SourceGraphic" in2="effect1_dropShadow_221_68" result="shape"/>
</filter>
<clipPath id="clip0_221_68">
<rect width="66" height="66" fill="white" transform="translate(9 5)"/>
</clipPath>
</defs>
</svg>
