<svg width="90" height="90" viewBox="0 0 90 90" fill="none" xmlns="http://www.w3.org/2000/svg">
<g id="floor 1" filter="url(#filter0_d_221_72)">
<path id="Vector" d="M74.6736 63.1094L66.7536 24.8295C66.6282 24.2222 66.087 23.7801 65.46 23.7801H24.54C23.913 23.7801 23.3718 24.2222 23.2464 24.8295L15.3264 63.1094C15.2472 63.4988 15.3462 63.9015 15.597 64.2117C15.8478 64.5219 16.224 64.7001 16.62 64.7001H73.38C73.776 64.7001 74.1522 64.5219 74.403 64.2117C74.6538 63.9081 74.7528 63.4988 74.6736 63.1094ZM67.7964 42.9201C67.7832 42.9201 67.7766 42.9201 67.77 42.9201H46.32V26.42H64.3842L67.7964 42.9201ZM25.6158 26.42H43.68V42.9201H22.23C22.2168 42.9201 22.2102 42.9201 22.2036 42.9201L25.6158 26.42ZM21.6822 45.4347C21.8472 45.5138 22.032 45.5601 22.23 45.5601H43.68V62.0601H18.2436L21.6822 45.4347ZM46.32 62.0601V45.5601H67.77C67.968 45.5601 68.1528 45.5138 68.3178 45.4347L71.7564 62.0601H46.32ZM49.62 12.56C51.4416 12.56 52.92 14.0384 52.92 15.86C52.92 16.586 53.514 17.18 54.24 17.18C54.966 17.18 55.56 16.586 55.56 15.86C55.56 14.0384 57.0384 12.56 58.86 12.56C59.586 12.56 60.18 11.966 60.18 11.24C60.18 10.514 59.586 9.92005 58.86 9.92005C57.0384 9.92005 55.56 8.44165 55.56 6.62005C55.56 5.89405 54.966 5.30005 54.24 5.30005C53.514 5.30005 52.92 5.89405 52.92 6.62005C52.92 8.44165 51.4416 9.92005 49.62 9.92005C48.894 9.92005 48.3 10.514 48.3 11.24C48.3 11.966 48.894 12.56 49.62 12.56ZM54.24 10.3424C54.504 10.6724 54.8076 10.9694 55.1376 11.24C54.8076 11.504 54.5106 11.8076 54.24 12.1376C53.976 11.8076 53.6724 11.5106 53.3424 11.24C53.6724 10.976 53.976 10.6724 54.24 10.3424ZM31.14 15.2C32.9616 15.2 34.44 16.6784 34.44 18.5C34.44 19.226 35.034 19.82 35.76 19.82C36.486 19.82 37.08 19.226 37.08 18.5C37.08 16.6784 38.5584 15.2 40.38 15.2C41.106 15.2 41.7 14.606 41.7 13.88C41.7 13.154 41.106 12.56 40.38 12.56C38.5584 12.56 37.08 11.0816 37.08 9.26005C37.08 8.53405 36.486 7.94005 35.76 7.94005C35.034 7.94005 34.44 8.53405 34.44 9.26005C34.44 11.0816 32.9616 12.56 31.14 12.56C30.414 12.56 29.82 13.154 29.82 13.88C29.82 14.606 30.414 15.2 31.14 15.2ZM35.76 12.9824C36.024 13.3124 36.3276 13.6094 36.6576 13.88C36.3276 14.144 36.0306 14.4476 35.76 14.7776C35.496 14.4476 35.1924 14.1506 34.8624 13.88C35.1924 13.616 35.496 13.3124 35.76 12.9824Z" fill="white"/>
</g>
<defs>
<filter id="filter0_d_221_72" x="-3" y="-3" width="96" height="96" filterUnits="userSpaceOnUse" color-interpolation-filters="sRGB">
<feFlood flood-opacity="0" result="BackgroundImageFix"/>
<feColorMatrix in="SourceAlpha" type="matrix" values="0 0 0 0 0 0 0 0 0 0 0 0 0 0 0 0 0 0 127 0" result="hardAlpha"/>
<feOffset dy="10"/>
<feGaussianBlur stdDeviation="7.5"/>
<feComposite in2="hardAlpha" operator="out"/>
<feColorMatrix type="matrix" values="0 0 0 0 0 0 0 0 0 0 0 0 0 0 0 0 0 0 0.25 0"/>
<feBlend mode="normal" in2="BackgroundImageFix" result="effect1_dropShadow_221_72"/>
<feBlend mode="normal" in="SourceGraphic" in2="effect1_dropShadow_221_72" result="shape"/>
</filter>
</defs>
</svg>
