<svg width="76" height="99" viewBox="0 0 76 99" fill="none" xmlns="http://www.w3.org/2000/svg">
<g id="furniture (1) 1" clip-path="url(#clip0_221_52)" filter="url(#filter0_d_221_52)">
<g id="Layer 2">
<path id="Vector" d="M59.4651 52.0372C59.7401 52.0372 60.0039 51.9267 60.1984 51.73C60.3929 51.5333 60.5022 51.2665 60.5022 50.9883C60.5022 37.3673 52.0185 28.4452 38.7917 28.0047V6.04884C38.7917 5.77067 38.6824 5.5039 38.4879 5.3072C38.2934 5.1105 38.0296 5 37.7545 5C37.4795 5 37.2157 5.1105 37.0212 5.3072C36.8267 5.5039 36.7174 5.77067 36.7174 6.04884V28.0047C23.4837 28.4452 15 37.3673 15 50.9883C15 51.2665 15.1093 51.5333 15.3038 51.73C15.4983 51.9267 15.7621 52.0372 16.0371 52.0372H29.5543C29.855 54.0351 30.8402 55.8627 32.3377 57.2008C33.8353 58.5389 35.75 59.3025 37.7476 59.3581C39.7464 59.3041 41.6628 58.5412 43.1618 57.203C44.6608 55.8648 45.6469 54.0363 45.9478 52.0372H59.4651ZM37.7476 30.0814C47.5104 30.0814 57.9301 35.3256 58.4072 49.9395H17.0743C17.5652 35.3256 27.9848 30.0814 37.7476 30.0814ZM37.7476 57.2604C36.3009 57.2043 34.9145 56.6593 33.8102 55.7124C32.706 54.7654 31.9475 53.4714 31.6562 52.0372H43.8459C43.5544 53.4725 42.7949 54.7674 41.6892 55.7145C40.5835 56.6615 39.1956 57.2059 37.7476 57.2604ZM60.5921 64.7981L54.155 59.8336C53.9358 59.6648 53.6594 59.591 53.3864 59.6284C53.1135 59.6658 52.8664 59.8113 52.6995 60.0329C52.5327 60.2545 52.4597 60.5341 52.4966 60.8101C52.5336 61.0861 52.6775 61.336 52.8966 61.5048L59.3337 66.4693C59.5528 66.6381 59.8293 66.7119 60.1022 66.6745C60.2374 66.656 60.3676 66.6107 60.4854 66.5413C60.6033 66.4719 60.7065 66.3797 60.7891 66.27C60.8717 66.1603 60.9322 66.0352 60.967 65.9018C61.0018 65.7685 61.0103 65.6295 60.992 65.4928C60.9737 65.3561 60.929 65.2244 60.8604 65.1052C60.7917 64.986 60.7006 64.8817 60.5921 64.7981ZM23.0274 59.7497L16.77 64.938C16.6429 65.0165 16.534 65.1218 16.4507 65.2468C16.3674 65.3717 16.3117 65.5133 16.2874 65.662C16.2631 65.8106 16.2707 65.9628 16.3098 66.1082C16.3489 66.2536 16.4185 66.3888 16.5139 66.5045C16.6093 66.6203 16.7282 66.7139 16.8625 66.779C16.9969 66.8441 17.1436 66.8791 17.2925 66.8818C17.4415 66.8844 17.5893 66.8545 17.7258 66.7942C17.8623 66.7339 17.9844 66.6445 18.0837 66.5322L24.348 61.3509C24.4578 61.2652 24.5495 61.1581 24.6177 61.0359C24.6859 60.9137 24.7291 60.7789 24.7449 60.6395C24.7606 60.5001 24.7485 60.359 24.7094 60.2244C24.6702 60.0898 24.6047 59.9645 24.5168 59.856C24.4289 59.7474 24.3204 59.6578 24.1976 59.5924C24.0749 59.5271 23.9404 59.4873 23.8021 59.4754C23.6639 59.4636 23.5247 59.4799 23.3928 59.5234C23.2609 59.5669 23.139 59.6367 23.0343 59.7287L23.0274 59.7497ZM38.0519 64.5814C37.7768 64.5814 37.513 64.6919 37.3185 64.8886C37.124 65.0853 37.0147 65.352 37.0147 65.6302V72.9512C37.0147 73.2293 37.124 73.4961 37.3185 73.6928C37.513 73.8895 37.7768 74 38.0519 74C38.3269 74 38.5907 73.8895 38.7852 73.6928C38.9797 73.4961 39.089 73.2293 39.089 72.9512V65.6302C39.089 65.352 38.9797 65.0853 38.7852 64.8886C38.5907 64.6919 38.3269 64.5814 38.0519 64.5814Z" fill="white"/>
</g>
</g>
<defs>
<filter id="filter0_d_221_52" x="0" y="0" width="76" height="99" filterUnits="userSpaceOnUse" color-interpolation-filters="sRGB">
<feFlood flood-opacity="0" result="BackgroundImageFix"/>
<feColorMatrix in="SourceAlpha" type="matrix" values="0 0 0 0 0 0 0 0 0 0 0 0 0 0 0 0 0 0 127 0" result="hardAlpha"/>
<feOffset dy="10"/>
<feGaussianBlur stdDeviation="7.5"/>
<feComposite in2="hardAlpha" operator="out"/>
<feColorMatrix type="matrix" values="0 0 0 0 0 0 0 0 0 0 0 0 0 0 0 0 0 0 0.25 0"/>
<feBlend mode="normal" in2="BackgroundImageFix" result="effect1_dropShadow_221_52"/>
<feBlend mode="normal" in="SourceGraphic" in2="effect1_dropShadow_221_52" result="shape"/>
</filter>
<clipPath id="clip0_221_52">
<rect width="46" height="69" fill="white" transform="translate(15 5)"/>
</clipPath>
</defs>
</svg>
